<?xml version="1.0" standalone="no"?>
<!DOCTYPE svg PUBLIC "-//W3C//DTD SVG 20010904//EN"
 "http://www.w3.org/TR/2001/REC-SVG-20010904/DTD/svg10.dtd">
<svg version="1.0" xmlns="http://www.w3.org/2000/svg"
 width="512.000000pt" height="512.000000pt" viewBox="0 0 512.000000 512.000000"
 preserveAspectRatio="xMidYMid meet">
<metadata>
Created by potrace 1.14, written by Peter Selinger 2001-2017
</metadata>
<g transform="translate(0.000000,512.000000) scale(0.100000,-0.100000)"
fill="#000000" stroke="none">
<path d="M824 4721 c-79 -29 -133 -67 -219 -156 -94 -97 -130 -158 -151 -257
-17 -81 -12 -152 17 -235 26 -76 64 -126 179 -236 l102 -98 65 92 c138 196
330 398 513 538 52 40 97 77 98 82 2 6 -40 55 -95 110 -79 81 -112 108 -173
137 -70 34 -82 37 -180 39 -82 2 -116 -1 -156 -16z"/>
<path d="M4134 4721 c-28 -10 -71 -30 -95 -44 -46 -27 -229 -206 -229 -224 0
-6 41 -41 91 -78 180 -135 398 -363 526 -552 l56 -82 36 28 c81 65 198 198
229 262 85 175 55 353 -87 510 -131 145 -238 199 -389 199 -59 -1 -104 -7
-138 -19z"/>
<path d="M1700 3969 c-166 -16 -354 -87 -519 -196 -111 -74 -280 -243 -354
-354 -217 -327 -262 -696 -120 -984 68 -140 200 -267 306 -296 56 -15 135 -6
200 24 86 39 191 132 417 368 118 123 302 307 409 409 l194 185 47 -90 c112
-214 148 -262 222 -299 97 -49 214 -30 289 46 34 34 179 278 195 329 9 26 15
21 219 -175 116 -110 303 -297 415 -415 283 -296 388 -375 515 -388 141 -15
300 108 400 308 180 357 42 876 -323 1209 -286 262 -658 376 -976 301 -163
-39 -322 -141 -403 -259 -51 -75 -67 -129 -60 -199 l6 -53 -159 0 -159 0 6 53
c7 70 -9 124 -60 199 -135 197 -410 304 -707 277z m1893 -599 c48 -54 29 -143
-39 -175 -41 -19 -58 -19 -100 1 -66 31 -85 118 -38 173 48 57 125 58 177 1z
m-1553 11 c51 -51 52 -111 1 -162 -51 -51 -111 -50 -162 1 -24 24 -29 37 -29
78 0 43 5 55 31 81 26 26 38 31 81 31 41 0 54 -5 78 -29z"/>
<path d="M299 2398 c-107 -117 -193 -216 -233 -269 l-26 -37 39 -154 c50 -198
94 -317 186 -503 127 -258 252 -439 444 -638 285 -296 603 -505 976 -642 135
-50 372 -109 530 -131 190 -27 530 -25 720 4 279 44 497 113 760 241 269 132
479 286 695 507 360 371 585 801 685 1314 l26 133 -24 26 c-138 153 -231 251
-238 251 -5 0 -9 -22 -9 -48 0 -121 -52 -331 -116 -471 -191 -416 -648 -701
-1299 -810 -267 -45 -413 -55 -795 -55 -404 0 -618 17 -882 70 -24 5 -30 -1
-73 -80 -42 -77 -50 -86 -75 -86 -20 0 -33 7 -41 21 -9 18 -5 32 25 90 20 38
36 72 36 77 0 4 -33 16 -72 26 -40 10 -78 21 -84 23 -21 8 -160 -243 -230
-414 -45 -109 -63 -131 -99 -115 -17 8 -25 19 -25 37 0 48 129 324 225 483
l26 42 -23 9 c-252 98 -418 200 -568 351 -178 178 -281 374 -331 632 -10 54
-19 118 -20 141 -1 88 -7 87 -110 -25z"/>
</g>
</svg>
